<svg version="1.1" viewBox="0 0 80 80" xmlns="http://www.w3.org/2000/svg">
	<defs>
		<linearGradient id="a" x1="27" x2="46" y1="24" y2="46" gradientTransform="translate(15 5)" gradientUnits="userSpaceOnUse">
			<stop stop-color="#f3f7fe" offset="0"/>
			<stop stop-color="#b3d5ff" offset="1"/>
		</linearGradient>
		<linearGradient id="b" x1="12.3" x2="25.7" y1="17.3" y2="30.7" gradientTransform="matrix(1.56,0,0,1.56,35.2,2.53)" gradientUnits="userSpaceOnUse">
			<stop stop-color="#ffda6c" offset="0"/>
			<stop stop-color="#ffc043" offset="1"/>
		</linearGradient>
	</defs>
	<g transform="translate(-28.8 -.1)" stroke="#f6a823" stroke-miterlimit="10">
		<g transform="translate(55,23.4)" fill="none" stroke-linecap="round" stroke-width="4">
			<path d="m0.09 16.6-0.09-22.9m0 46 0.09-23.1m-23.1 0.02 23.1-0.02m23 0.02-23-0.02">
				<animateTransform additive="sum" attributeName="transform" dur="4s" repeatCount="indefinite" type="translate" values="0 0 ; 0 2.4 ; 0 0"/>
				<animateTransform additive="sum" attributeName="transform" dur="4s" repeatCount="indefinite" type="scale" values="1 1 ; .8 .8 ; 1 1"/>
			</path>
			<path d="m0.02 16.7 16.3-16.3m-32.5 32.5 16.2-16.2m-16.2-16.4 16.2 16.3m16.4 16.3-16.3-16.3">
				<animateTransform additive="sum" attributeName="transform" begin="-2s" dur="4s" repeatCount="indefinite" type="translate" values="0 0 ; 0 2.4 ; 0 0"/>
				<animateTransform additive="sum" attributeName="transform" begin="-2s" dur="4s" repeatCount="indefinite" type="scale" values="1 1 ; .8 .8 ; 1 1"/>
			</path>
		</g>
		<circle cx="55" cy="40" r="15" fill="url(#b)" stroke-width="2"/>
	</g>
	<g stroke-miterlimit="10">
		<path d="m69 39c4-16-18-25-27-11-8-5-16 3-15 10-12 2-11 21 2 21h40c13 1 13-20 0-20z" fill="url(#a)" stroke="#0170e5" stroke-width="2"/>
	</g>
	<g fill="none" stroke="#0170e5" stroke-linecap="round" stroke-width="4">
		<path d="m40 54-2 7">
			<animateTransform attributeName="transform" dur="0.7s" repeatCount="indefinite" type="translate" values="1 -5; -2 10"/>
			<animate attributeName="opacity" dur="0.7s" repeatCount="indefinite" values="0;1;1;0"/>
		</path>
		<path d="m58 54-2 7">
			<animateTransform attributeName="transform" begin="-0.2s" dur="0.7s" repeatCount="indefinite" type="translate" values="1 -5; -2 10"/>
			<animate attributeName="opacity" begin="-0.2s" dur="0.7s" repeatCount="indefinite" values="0;1;1;0"/>
		</path>
	</g>
</svg>
