<svg version="1.1" viewBox="0 0 80 80" xmlns="http://www.w3.org/2000/svg">
	<defs>
		<linearGradient id="a" x1="37" x2="35" y1="46" y2="17"
			gradientTransform="matrix(1.29 0 0 1.29 -7.35 12.1)" gradientUnits="userSpaceOnUse">
			<stop stop-color="#c3c3c3" offset="0" />
			<stop stop-color="#ededed" offset="1" />
		</linearGradient>
		<linearGradient id="c" x1="51" x2="69" y1="39" y2="57" gradientUnits="userSpaceOnUse">
			<stop stop-color="#f3f7fe" offset="0" />
			<stop stop-color="#b3d5ff" offset="1" />
		</linearGradient>
	</defs>
	<path
		d="m58.2 21c-14.9 1.89-20.8 19.9-11.9 31.8 9.33 10.9 28.8 6.95 32.8-7.54-5.96 3.87-17.9 6.15-22.8-2.48-4.96-8.64-0.715-15.9 1.89-20.8z"
		fill="url(#a)" stroke="#7d7d7d" stroke-linecap="round" stroke-linejoin="round"
		stroke-width="2"></path>
	<path
		d="m36 59h23c7.5 0 8.8-12 1.1-12 1.2-5.3-4.3-9-8.5-5.8-4-6-16-4-16 6.4-7.3 0.31-7.1 11 0.15 11.4z"
		fill="url(#c)" stroke="#0170e5" stroke-miterlimit="10" stroke-width="2">
		<animateTransform fill="url(#c)" attributeName="transform" calcMode="spline" dur="4s"
			keySplines=".2 0 .8 1 ; .2 0 .8 1" repeatCount="indefinite" type="translate"
			values="-18 0; -6 0; -18 0" />
	</path>
</svg>