<svg version="1.1" viewBox="0 0 80 80" xmlns="http://www.w3.org/2000/svg">
    <defs>
        <linearGradient id="b" x1="60" x2="25" y1="30" y2="61"
            gradientTransform="matrix(-.8 0 0 .8 77 7.5)" gradientUnits="userSpaceOnUse">
            <stop stop-color="#bfbfbf" offset="0" />
            <stop stop-color="#f9f9f9" offset="1" />
        </linearGradient>
        <linearGradient id="a" x1="37" x2="35" y1="46" y2="17"
            gradientTransform="matrix(1.2903 0 0 1.2904 -11.63 12.067)"
            gradientUnits="userSpaceOnUse">
            <stop stop-color="#9dd5f2" offset="0" />
            <stop stop-color="#daedf2" offset="1" />
        </linearGradient>
        <linearGradient id="c" x1="51" x2="69" y1="39" y2="57" gradientUnits="userSpaceOnUse">
            <stop stop-color="#f3f7fe" offset="0" />
            <stop stop-color="#b3d5ff" offset="1" />
        </linearGradient>
    </defs>
    <g stroke-width="2">
        <!-- <path
            d="m25 42.8c-3.2-13 14-20 22-8.8 6.4-4 13 2.4 12 8 9.6 1.6 8.8 17-1.6 17h-32c-10 0.8-10-16-1-16.2z"
            fill="url(#b)" stroke="#727374" stroke-miterlimit="10" stroke-width="2" /> -->
        <path
            d="m53.879 21c-14.889 1.8859-20.844 19.852-11.911 31.763 9.3302 10.918 28.785 6.9481 32.755-7.5436-5.9554 3.8711-17.866 6.154-22.829-2.4815-4.9629-8.6355-0.71465-15.881 1.8859-20.844z"
            fill="url(#a)" stroke="#70b5ff" stroke-linecap="round" stroke-linejoin="round"
            stroke-width="2">
            <animateTransform fill="url(#a)" attributeName="transform" begin="-3" calcMode="spline"
                dur="4s" keySplines=".2 0 .8 1 ; .2 0 .8 1" repeatCount="indefinite" type="rotate"
                values="-10 54 21; 5 54 21; -10 54 21" />
        </path>
        <path
            d="m36 59h23c7.5 0 8.8-12 1.1-12 1.2-5.3-4.3-9-8.5-5.8-4-6-16-4-16 6.4-7.3 0.31-7.1 11 0.15 11.4z"
            fill="url(#c)" stroke="#0170e5" stroke-miterlimit="10">
            <animateTransform fill="url(#c)" attributeName="transform" calcMode="spline" dur="4s"
                keySplines=".2 0 .8 1 ; .2 0 .8 1" repeatCount="indefinite" type="translate"
                values="-18 0; -6 0; -18 0" />
        </path>
    </g>
</svg>