<svg version="1.1" viewBox="0 0 80 80" xmlns="http://www.w3.org/2000/svg" xmlns:xlink="http://www.w3.org/1999/xlink">
	<defs>
		<linearGradient id="a" x1="27" x2="46" y1="24" y2="46" gradientTransform="matrix(1.4 0 0 1.4 4 -5.4)" gradientUnits="userSpaceOnUse">
			<stop stop-color="#f3f7fe" offset="0"/>
			<stop stop-color="#b3d5ff" offset="1"/>
		</linearGradient>
	</defs>
	<path d="m69 39c4-16-18-25-27-11-8-5-16 3-15 10-12 2-11 21 2 21h40c13 1 13-20 0-20z" fill="url(#a)" stroke="#0170e5" stroke-miterlimit="10" stroke-width="2"/>
	<g fill="none" stroke="#0170e5" stroke-linecap="round" stroke-miterlimit="10">
		<g stroke-width="4">
			<path d="m30 52-2 7">
				<animateTransform attributeName="transform" dur="0.7s" repeatCount="indefinite" type="translate" values="1 -5; -2 10"/>
				<animate attributeName="opacity" dur="0.7s" repeatCount="indefinite" values="0;1;1;0"/>
			</path>
			<path d="m48 50-2 7">
				<animateTransform attributeName="transform" begin="-0.5s" dur="0.7s" repeatCount="indefinite" type="translate" values="1 -5; -2 10"/>
				<animate attributeName="opacity" begin="-0.5s" dur="0.7s" repeatCount="indefinite" values="0;1;1;0"/>
			</path>
			<path d="m68 50-2 7">
				<animateTransform attributeName="transform" begin="-1s" dur="0.7s" repeatCount="indefinite" type="translate" values="1 -5; -2 10"/>
				<animate attributeName="opacity" begin="-1s" dur="0.7s" repeatCount="indefinite" values="0;1;1;0"/>
			</path>
		</g>
	</g>
<path d="m42 42-7.8-4.5m7.8 0-7.8 4.5m3.9-6.8v9" stroke="#70B5FF" stroke-linecap="round" stroke-width="3">
        <animateTransform additive="sum" attributeName="transform" dur="2s"
            repeatCount="indefinite" type="translate" values="1 4; -3 30" />
        <animateTransform additive="sum" attributeName="transform" dur="8s" repeatCount="indefinite"
            type="rotate" values="0 38 40; 360 38 40" />
        <animate attributeName="opacity" dur="2s" repeatCount="indefinite"
            values="0;1;1;1;0" />     
</path>
<path d="m60 44-7.8-4.5m7.8 0-7.8 4.5m3.9-6.8v9" stroke="#70B5FF" stroke-linecap="round" stroke-width="3">
        <animateTransform additive="sum" attributeName="transform" begin="-.4" dur="2s"
            repeatCount="indefinite" type="translate" values="1 4; -3 30" />
        <animateTransform additive="sum" attributeName="transform" begin="-.4" dur="4s" repeatCount="indefinite"
            type="rotate" values="0 56 42; 360 56 42" />
        <animate attributeName="opacity" begin="-.4" dur="2s" repeatCount="indefinite"
            values="0;1;1;1;0" />     
</path>

</svg>
