<?xml version="1.0" encoding="UTF-8"?>
<svg id="Layer_2" xmlns="http://www.w3.org/2000/svg" version="1.1" viewBox="0 0 1080 1080">
  <!-- Generator: Adobe Illustrator 29.5.1, SVG Export Plug-In . SVG Version: 2.1.0 Build 141)  -->
  <defs>
    <style>
      .st0 {
        fill: #900;
      }

      .st1 {
        fill: #fff;
      }
    </style>
  </defs>
  <rect class="st0" width="1080" height="1080"/>
  <path class="st1" d="M540,955.1c-56,0-110.4-11-161.6-32.7-49.4-20.9-93.8-50.8-131.9-88.9-38.1-38.1-68-82.5-88.9-131.9-21.7-51.2-32.7-105.6-32.7-161.6s11-110.4,32.7-161.6c20.9-49.4,50.8-93.8,88.9-131.9,38.1-38.1,82.5-68,131.9-88.9,51.2-21.7,105.6-32.7,161.6-32.7s110.4,11,161.6,32.7c49.4,20.9,93.8,50.8,131.9,88.9,38.1,38.1,68,82.5,88.9,131.9,21.7,51.2,32.7,105.6,32.7,161.6s-11,110.4-32.7,161.6c-20.9,49.4-50.8,93.8-88.9,131.9-38.1,38.1-82.5,68-131.9,88.9-51.2,21.7-105.6,32.7-161.6,32.7ZM540,292c-66.2,0-128.5,25.8-175.4,72.6s-72.6,109.1-72.6,175.4,25.8,128.5,72.6,175.3c46.8,46.8,109.1,72.6,175.4,72.6s128.5-25.8,175.3-72.6,72.6-109.1,72.6-175.3-25.8-128.5-72.6-175.4-109.1-72.6-175.3-72.6Z"/>
  <path class="st1" d="M540,718.1c-98.2,0-178.1-79.9-178.1-178.1s79.9-178.1,178.1-178.1,178.1,79.9,178.1,178.1-79.9,178.1-178.1,178.1ZM540,487.2c-29.1,0-52.8,23.7-52.8,52.8s23.7,52.8,52.8,52.8,52.8-23.7,52.8-52.8-23.7-52.8-52.8-52.8Z"/>
</svg>