<?xml version="1.0" encoding="UTF-8"?>
<svg id="Layer_2" data-name="Layer 2" xmlns="http://www.w3.org/2000/svg" width="1080" height="1080" viewBox="0 0 1080 1080">
  <defs>
    <style>
      .cls-1 {
        fill: red;
      }
    </style>
  </defs>
  <g id="Layer_1-2" data-name="Layer 1">
    <g>
      <rect width="1080" height="1080"/>
      <g>
        <path class="cls-1" d="M540,955.11c-56,0-110.37-10.99-161.61-32.66-49.44-20.91-93.83-50.83-131.92-88.93-38.1-38.1-68.02-82.48-88.93-131.92-21.67-51.23-32.66-105.6-32.66-161.61s10.99-110.37,32.66-161.61c20.91-49.44,50.83-93.83,88.93-131.92,38.1-38.1,82.48-68.02,131.92-88.93,51.23-21.67,105.6-32.66,161.61-32.66s110.37,10.99,161.61,32.66c49.44,20.91,93.83,50.83,131.92,88.93,38.1,38.1,68.02,82.48,88.93,131.92,21.67,51.23,32.66,105.6,32.66,161.61s-10.99,110.37-32.66,161.61c-20.91,49.44-50.83,93.83-88.93,131.92-38.1,38.1-82.48,68.02-131.92,88.93-51.23,21.67-105.6,32.66-161.61,32.66ZM540,292.02c-66.24,0-128.51,25.79-175.35,72.63-46.84,46.84-72.63,109.11-72.63,175.35s25.79,128.51,72.63,175.35c46.84,46.84,109.11,72.63,175.35,72.63s128.51-25.79,175.35-72.63,72.63-109.11,72.63-175.35-25.79-128.51-72.63-175.35c-46.84-46.84-109.11-72.63-175.35-72.63Z"/>
        <path class="cls-1" d="M540,718.13c-98.22,0-178.13-79.91-178.13-178.13s79.91-178.13,178.13-178.13,178.13,79.91,178.13,178.13-79.91,178.13-178.13,178.13ZM540,487.22c-29.11,0-52.78,23.68-52.78,52.78s23.68,52.78,52.78,52.78,52.78-23.68,52.78-52.78-23.68-52.78-52.78-52.78Z"/>
      </g>
    </g>
  </g>
</svg>