<?xml version="1.0" encoding="UTF-8"?>
<svg id="Layer_2" data-name="Layer 2" xmlns="http://www.w3.org/2000/svg" width="1080" height="1080" viewBox="0 0 1080 1080">
  <defs>
    <style>
      .cls-1 {
        fill: #ff0;
      }
    </style>
  </defs>
  <g id="Layer_1-2" data-name="Layer 1">
    <g>
      <rect class="cls-1" width="1080" height="1080"/>
      <g>
        <path d="M399.99,542.48c0,51.81,28.14,97.06,70.01,121.25,9.66,5.6,20.05,10.08,31.03,13.25,12.38,3.58,25.46,5.52,38.98,5.52s26.63-1.93,39.01-5.52c10.95-3.16,21.34-7.62,31-13.25,41.86-24.19,70.01-69.45,70.01-121.25,0-11.54-1.4-22.77-4.03-33.49-6.41-26.18-20.19-49.45-39.01-67.52-8.09-7.78-17.14-14.62-26.94-20.27-20.61-11.93-44.53-18.73-70.04-18.73s-49.42,6.8-70.01,18.73c-9.8,5.66-18.85,12.49-26.97,20.27-18.82,18.09-32.6,41.36-39.01,67.54-2.63,10.72-4.03,21.93-4.03,33.46Z"/>
        <path d="M578.5,675.27c-12.22,3.56-25.14,5.46-38.5,5.46s-26.28-1.9-38.5-5.46c-10.8-3.13-21.05-7.56-30.6-13.09l-161.39,279.52c32.16,18.65,66.41,33.27,102.11,43.56,41.2,11.89,84.31,18.03,128.38,18.03s87.18-6.14,128.38-18.03c35.7-10.29,69.97-24.9,102.13-43.54l-161.41-279.54c-9.55,5.53-19.8,9.95-30.6,13.09Z"/>
        <path d="M674.24,509.43c2.62,10.58,4,21.66,4,33.05h322.56c0-37.64-4.48-74.58-13.2-110.21-19.76-80.95-61.34-155.2-121.76-215.62-2.23-2.23-4.46-4.42-6.73-6.58-27.11-26.06-56.85-48.42-88.62-66.82l-161.39,279.52c9.66,5.6,18.6,12.33,26.6,20.02,18.58,17.86,32.2,40.83,38.54,66.63Z"/>
        <path d="M405.76,509.43c6.34-25.8,19.96-48.77,38.54-66.63,8-7.69,16.94-14.41,26.6-20.02l-161.39-279.52c-31.76,18.41-61.51,40.75-88.6,66.82-2.27,2.16-4.5,4.35-6.73,6.58-60.42,60.42-102,134.67-121.78,215.62-8.72,35.63-13.2,72.57-13.2,110.21h322.56c0-11.39,1.38-22.47,4-33.05Z"/>
      </g>
    </g>
  </g>
</svg>