<svg version="1.1" viewBox="0 0 80 80" xmlns="http://www.w3.org/2000/svg">
	<defs>
		<linearGradient id="a" x1="37" x2="64" y1="33" y2="64"
			gradientTransform="translate(5 -5) scale(1)" gradientUnits="userSpaceOnUse">
			<stop stop-color="#f3f7fe" offset="0" />
			<stop stop-color="#b3d5ff" offset="1" />
		</linearGradient>
	</defs>
	<g stroke-miterlimit="10">
		<path
			d="m69 39c4-16-18-25-27-11-8-5-16 3-15 10-12 2-11 21 2 21 13 0 27 0 40 0 13 1 13-20 0-20z"
			fill="url(#a)" stroke="#0170e5" stroke-width="2" />
	</g>
	<g fill="none" stroke="#0170e5" stroke-linecap="round" stroke-width="4">
		<path d="m34 54-2 7">
			<animateTransform attributeName="transform" dur="0.7s" repeatCount="indefinite"
				type="translate" values="1 -5; -2 10" />
			<animate attributeName="opacity" dur="0.7s" repeatCount="indefinite" values="0;1;1;0" />
		</path>
		<path d="m64 54-2 7">
			<animateTransform attributeName="transform" begin="-0.4s" dur="0.7s"
				repeatCount="indefinite" type="translate" values="1 -5; -2 10" />
			<animate attributeName="opacity" begin="-0.4s" dur="0.7s" repeatCount="indefinite"
				values="0;1;1;0" />
		</path>
		<path d="m71 54-2 7">
			<animateTransform attributeName="transform" begin="-0.2s" dur="0.7s"
				repeatCount="indefinite" type="translate" values="1 -5; -2 10" />
			<animate attributeName="opacity" begin="-0.2s" dur="0.7s" repeatCount="indefinite"
				values="0;1;1;0" />
		</path>
	</g>
	<path d="m47 45-6 17h6l-4 12 15-18h-8l6-11z" fill="#ffc96b" stroke="#f6a823" stroke-width="2" stroke-miterlimit="10">
		<animate attributeName="opacity" dur="2s" repeatCount="indefinite"
			values="1; 1; 1; 1; 1; 1; 0.1; 1; 0.1; 1; 1; 0.1; 1; 0.1; 1" />
	</path>
</svg>