<svg version="1.1" viewBox="0 0 80 80" xmlns="http://www.w3.org/2000/svg">
	<defs>
		<linearGradient id="a" x1="27" x2="46" y1="24" y2="46" gradientTransform="matrix(1.4 0 0 1.4 4 -5.4)" gradientUnits="userSpaceOnUse">
			<stop stop-color="#f3f7fe" offset="0"/>
			<stop stop-color="#b3d5ff" offset="1"/>
		</linearGradient>
		<linearGradient id="b" x1="12.3" x2="25.7" y1="17.3" y2="30.7" gradientTransform="matrix(1.56,0,0,1.56,35.2,2.53)" gradientUnits="userSpaceOnUse">
			<stop stop-color="#ffda6c" offset="0"/>
			<stop stop-color="#ffc043" offset="1"/>
		</linearGradient>
	</defs>
	<g transform="translate(-28.8 -.1)" stroke="#f6a823" stroke-miterlimit="10">
		<g transform="translate(55,23.4)" fill="none" stroke-linecap="round" stroke-width="4">
			<path d="m0.09 16.6-0.09-22.9m0 46 0.09-23.1m-23.1 0.02 23.1-0.02m23 0.02-23-0.02">
				<animateTransform additive="sum" attributeName="transform" dur="4s" repeatCount="indefinite" type="translate" values="0 0 ; 0 2.4 ; 0 0"/>
				<animateTransform additive="sum" attributeName="transform" dur="4s" repeatCount="indefinite" type="scale" values="1 1 ; .8 .8 ; 1 1"/>
			</path>
			<path d="m0.02 16.7 16.3-16.3m-32.5 32.5 16.2-16.2m-16.2-16.4 16.2 16.3m16.4 16.3-16.3-16.3">
				<animateTransform additive="sum" attributeName="transform" begin="-2s" dur="4s" repeatCount="indefinite" type="translate" values="0 0 ; 0 2.4 ; 0 0"/>
				<animateTransform additive="sum" attributeName="transform" begin="-2s" dur="4s" repeatCount="indefinite" type="scale" values="1 1 ; .8 .8 ; 1 1"/>
			</path>
		</g>
		<circle cx="55" cy="40" r="15" fill="url(#b)" stroke-width="2"/>
	</g>
	<path d="m69 39c4-16-18-25-27-11-8-5-16 3-15 10-12 2-11 21 2 21h40c13 1 13-20 0-20z" fill="url(#a)" stroke="#0170e5" stroke-miterlimit="10" stroke-width="2"/>
	<path d="m54 42-7.8-4.5m7.8 0-7.8 4.5m3.9-6.8v9" stroke="#70B5FF" stroke-linecap="round" stroke-width="3">
		<animateTransform additive="sum" attributeName="transform" begin="-1.2s" dur="2s" repeatCount="indefinite" type="translate" values="8 4; 6 20"/>
		<animateTransform additive="sum" attributeName="transform" begin="-1.2s" dur="8s" repeatCount="indefinite" type="rotate" values="0 50 40; 360 50 40"/>
		<animate attributeName="opacity" begin="-1.2s" dur="2s" repeatCount="indefinite" values="0;1;1;1;0"/>
	</path>
	<path transform="translate(-10 11)" d="m54 42-7.8-4.5m7.8 0-7.8 4.5m3.9-6.8v9" stroke="#70B5FF" stroke-linecap="round" stroke-width="3">
		<animateTransform additive="sum" attributeName="transform" dur="3s" repeatCount="indefinite" type="translate" values="1 -4; -3 20"/>
		<animateTransform additive="sum" attributeName="transform" dur="8s" repeatCount="indefinite" type="rotate" values="0 50 40; 360 50 40"/>
		<animate attributeName="opacity" dur="3s" repeatCount="indefinite" values="0;1;1;1;0"/>
	</path>
</svg>
