<?xml version="1.0" encoding="UTF-8"?>
<svg id="Layer_2" xmlns="http://www.w3.org/2000/svg" version="1.1" viewBox="0 0 1080 1080">
  <!-- Generator: Adobe Illustrator 29.3.1, SVG Export Plug-In . SVG Version: 2.1.0 Build 151)  -->
  <defs>
    <style>
      .st0 {
        fill: #ff0;
      }
    </style>
  </defs>
  <rect class="st0" width="1080" height="1080"/>
  <path d="M400,542.5c0,51.8,28.1,97.1,70,121.2,9.7,5.6,20,10.1,31,13.2,12.4,3.6,25.5,5.5,39,5.5s26.6-1.9,39-5.5c11-3.2,21.3-7.6,31-13.2,41.9-24.2,70-69.5,70-121.2s-1.4-22.8-4-33.5c-6.4-26.2-20.2-49.5-39-67.5-8.1-7.8-17.1-14.6-26.9-20.3-20.6-11.9-44.5-18.7-70-18.7s-49.4,6.8-70,18.7c-9.8,5.7-18.9,12.5-27,20.3-18.8,18.1-32.6,41.4-39,67.5-2.6,10.7-4,21.9-4,33.5h0Z"/>
  <path d="M639.9,369.6c14,8.1,26.9,17.8,38.4,28.9,26.8,25.8,46.5,58.9,55.6,96.3,3.7,15.3,5.7,31.3,5.7,47.7h0s261.2,0,261.2,0c0-37.6-4.5-74.6-13.2-110.2-19.8-80.9-61.3-155.2-121.8-215.6-2.2-2.2-4.5-4.4-6.7-6.6-27.1-26.1-56.8-48.4-88.6-66.8l-130.7,226.3s0,0,0,0Z"/>
  <path d="M340.4,542.5h0c0-16.5,2-32.4,5.7-47.7,9.1-37.3,28.8-70.5,55.6-96.3,11.6-11.1,24.5-20.8,38.4-28.9l-130.7-226.3c-31.8,18.4-61.5,40.8-88.6,66.8-2.3,2.2-4.5,4.3-6.7,6.6-60.4,60.4-102,134.7-121.8,215.6-8.7,35.6-13.2,72.6-13.2,110.2h261.2s0,0,0,0Z"/>
  <path d="M639.8,715.4c-13.8,8-28.6,14.4-44.2,18.9-17.7,5.1-36.3,7.9-55.6,7.9s-37.9-2.8-55.6-7.9c-15.7-4.5-30.5-10.9-44.2-18.9l-130.7,226.4c32.2,18.7,66.4,33.3,102.1,43.6,41.2,11.9,84.3,18,128.4,18s87.2-6.1,128.4-18c35.7-10.3,70-24.9,102.1-43.5l-130.7-226.4Z"/>
</svg>